<svg xmlns="http://www.w3.org/2000/svg" viewBox="0 0 64 64">
	<defs>
		<linearGradient id="background" x1="10" y1="7" x2="54" y2="58" gradientUnits="userSpaceOnUse">
			<stop stop-color="#1f6955" />
			<stop offset="1" stop-color="#103d31" />
		</linearGradient>
		<linearGradient id="paw" x1="18" y1="13" x2="45" y2="51" gradientUnits="userSpaceOnUse">
			<stop stop-color="#ffffff" />
			<stop offset="1" stop-color="#fff5e8" />
		</linearGradient>
	</defs>

	<rect x="2" y="2" width="60" height="60" rx="18" fill="url(#background)" />
	<path d="M9 20C13 10 22 5 34 5" fill="none" stroke="#ffffff" stroke-opacity=".13" stroke-width="3" stroke-linecap="round" />

	<ellipse cx="17.5" cy="22" rx="5" ry="6.5" transform="rotate(-28 17.5 22)" fill="url(#paw)" />
	<ellipse cx="28" cy="15.5" rx="5.2" ry="6.7" transform="rotate(-8 28 15.5)" fill="url(#paw)" />
	<ellipse cx="39.5" cy="17" rx="5.2" ry="6.7" transform="rotate(10 39.5 17)" fill="url(#paw)" />
	<ellipse cx="47.5" cy="25" rx="5" ry="6.5" transform="rotate(30 47.5 25)" fill="url(#paw)" />

	<path
		d="M32.2 25.5c-5.4 0-8.6 4.4-11.8 8.2-3.1 3.7-5.7 7.1-4.4 11.1 1.4 4.2 5.4 6 9.4 4.7 2.1-.7 4.2-1.8 6.8-1.8 2.7 0 4.8 1.1 6.9 1.8 4 1.3 8-.5 9.4-4.7 1.3-4-1.3-7.4-4.4-11.1-3.2-3.8-6.5-8.2-11.9-8.2Z"
		fill="url(#paw)"
	/>
	<path
		d="M32.2 43.7c-.7-1.2-4.2-3.2-4.2-5.8 0-1.8 1.4-3.1 3-3.1.9 0 1.8.4 2.4 1.2.6-.8 1.5-1.2 2.4-1.2 1.7 0 3 1.3 3 3.1 0 2.6-3.5 4.6-4.2 5.8-.5.8-1.9.8-2.4 0Z"
		fill="#ff7057"
	/>
</svg>
